<svg width="429.00000000000006" height="58.07064812097422" viewBox="0 0 265.9519137418042 36" class="css-1j8o68f"><defs id="SvgjsDefs5689"></defs><g id="SvgjsG5690" featurekey="nameLeftFeature-0" transform="matrix(2.3802404403686523,0,0,2.3802404403686523,0.000001134987034664774,-11.61556967647573)" fill="#ffffff"><path d="M4.52 4.880000000000001 l5.8 0 c0.82 0 1.48 0.66 1.48 1.48 c0 0.8 -0.66 1.46 -1.48 1.46 l-5.82 0 c-0.86 0 -1.56 0.7 -1.56 1.58 c0 0.86 0.7 1.56 1.56 1.56 l4 0 c2.5 0 4.52 2.02 4.52 4.52 c0 0.34 -0.28 0.6 -0.6 0.6 c-0.34 0 -0.62 -0.26 -0.62 -0.6 c0 -1.82 -1.48 -3.3 -3.3 -3.3 l-4 0 c-1.54 0 -2.78 -1.24 -2.78 -2.78 s1.24 -2.8 2.78 -2.8 l5.82 0 c0.14 0 0.26 -0.1 0.26 -0.24 s-0.12 -0.26 -0.26 -0.26 l-5.8 0 c-1.82 0 -3.3 1.48 -3.3 3.3 c0 0.34 -0.28 0.6 -0.62 0.6 c-0.32 0 -0.6 -0.26 -0.6 -0.6 c0 -2.5 2.02 -4.52 4.52 -4.52 z M4.52 12.7 l4 0 c1.54 0 2.78 1.26 2.78 2.8 s-1.24 2.78 -2.78 2.78 l-6.4 0 c-0.14 0 -0.26 0.12 -0.26 0.26 s0.12 0.24 0.26 0.24 l6.38 0 c0.34 0 0.6 0.28 0.6 0.62 c0 0.32 -0.26 0.6 -0.6 0.6 l-6.38 0 c-0.82 0 -1.48 -0.66 -1.48 -1.46 s0.62 -1.48 1.42 -1.48 l6.46 0 c0.86 0 1.56 -0.7 1.56 -1.56 c0 -0.88 -0.7 -1.58 -1.56 -1.58 l-4 0 c-0.34 0 -0.6 -0.28 -0.6 -0.6 c0 -0.34 0.26 -0.62 0.6 -0.62 z M15.22 4.880000000000001 l7.28 0 c2.48 0.02 4.48 2.06 4.48 4.54 c0 2.32 -1.78 4.24 -4.04 4.48 l3.62 3.6 c0.54 0.54 0.54 1.54 0 2.08 s-1.48 0.58 -2.04 0.02 c-0.52 -0.54 -2.52 -2.52 -2.52 -2.52 c-0.24 -0.24 -0.24 -0.62 0 -0.86 s0.62 -0.24 0.86 0 l2.48 2.48 c0.1 0.1 0.26 0.12 0.36 0.02 s0.12 -0.24 0 -0.36 l-4.64 -4.62 c-0.12 -0.12 -0.18 -0.26 -0.18 -0.42 c0 -0.34 0.28 -0.62 0.62 -0.62 l0.96 0 c1.82 0 3.32 -1.48 3.32 -3.3 s-1.5 -3.3 -3.32 -3.3 l-6.62 0 l0 3.3 c0 0.34 -0.28 0.6 -0.62 0.6 s-0.6 -0.26 -0.6 -0.6 l0 -3.92 c0 -0.32 0.26 -0.6 0.6 -0.6 z M22.48 6.6 c1.54 0 2.8 1.26 2.8 2.8 s-1.26 2.78 -2.8 2.78 l-3.34 0 c-1.82 0 -3.3 1.48 -3.3 3.3 l0 3.92 c0 0.32 -0.28 0.6 -0.62 0.6 s-0.6 -0.28 -0.6 -0.6 l0 -3.92 c0 -2.5 2.02 -4.52 4.52 -4.52 l3.34 0 c0.88 0 1.58 -0.7 1.58 -1.56 c0 -0.88 -0.7 -1.58 -1.58 -1.58 c-0.34 0 -0.6 -0.26 -0.6 -0.6 s0.26 -0.62 0.6 -0.62 z M30.060000000000002 17.04 c0.8 0 1.46 0.66 1.46 1.48 s-0.66 1.48 -1.46 1.48 c-0.82 0 -1.48 -0.66 -1.48 -1.48 s0.66 -1.48 1.48 -1.48 z M30.040000000000003 18.2 c-0.16 0 -0.32 0.14 -0.32 0.32 s0.16 0.32 0.32 0.32 c0.18 0 0.32 -0.14 0.32 -0.32 s-0.14 -0.32 -0.32 -0.32 z M51.54 4.880000000000001 c1.9 0 3.44 1.54 3.44 3.44 l0 11.1 c0 0.32 -0.26 0.58 -0.6 0.58 c-0.32 0 -0.6 -0.26 -0.6 -0.58 l0 -11.1 c0 -1.24 -1 -2.24 -2.24 -2.24 c-1.22 0 -2.24 1 -2.24 2.24 l0 8.24 c0 0.96 -0.78 1.74 -1.74 1.74 s-1.74 -0.78 -1.74 -1.74 l0 -8.26 c0 -0.78 -0.42 -1.52 -1.12 -1.92 c-1.04 -0.62 -2.38 -0.24 -3.08 0.84 l-7.22 11.24 c-0.06 0.08 -0.08 0.24 0.06 0.34 c0.18 0.12 0.28 0.02 0.36 -0.1 l7.22 -11.22 c0.48 -0.72 1.48 -1.22 2.42 -0.68 c0.52 0.32 0.86 0.88 0.86 1.5 l0 8.26 c0 1.24 1.02 2.24 2.24 2.24 c1.24 0 2.24 -1 2.24 -2.24 l0 -8.24 c0 -0.34 0.28 -0.6 0.6 -0.6 c0.34 0 0.6 0.26 0.6 0.6 l0 8.24 c0 1.9 -1.54 3.44 -3.44 3.44 c-1.88 0 -3.42 -1.54 -3.42 -3.44 l0 -8.26 c-0.02 -0.22 -0.12 -0.38 -0.3 -0.46 c-0.38 -0.18 -0.66 0.08 -0.78 0.3 l-7.2 11.16 c-0.4 0.74 -1.32 0.88 -1.96 0.5 c-0.7 -0.4 -0.92 -1.28 -0.52 -1.96 l7.24 -11.26 c1.04 -1.62 3.1 -2.16 4.68 -1.24 c1.06 0.62 1.72 1.76 1.72 3 l0 8.22 c0 0.3 0.24 0.56 0.54 0.56 s0.56 -0.26 0.56 -0.56 l0 -8.24 c-0.02 -1.9 1.54 -3.44 3.42 -3.44 z"></path></g><g id="SvgjsG5691" featurekey="nameRightFeature-0" transform="matrix(2.3800785541534424,0,0,2.3800785541534424,135,-11.614776778987016)" fill="#ffffff"><path d="M3.5 4.880000000000001 l7.42 0 c0.8 0 1.46 0.66 1.46 1.46 s-0.62 1.48 -1.42 1.48 l-7.46 0 c-0.3 0 -0.56 0.24 -0.56 0.56 c0 0.3 0.26 0.56 0.56 0.56 c0.34 0 0.62 0.26 0.62 0.6 s-0.28 0.62 -0.62 0.62 c-0.98 0 -1.76 -0.8 -1.76 -1.78 s0.78 -1.78 1.76 -1.78 l7.42 0 c0.14 0 0.24 -0.12 0.24 -0.26 s-0.1 -0.24 -0.24 -0.24 l-7.42 0 c-1.26 0 -2.28 1.02 -2.28 2.28 s1.02 2.28 2.28 2.28 l5.38 0 c0.98 0 1.78 0.8 1.78 1.8 c0 0.98 -0.8 1.76 -1.78 1.76 l-5.38 0 c-1.26 0 -2.28 1.02 -2.28 2.28 s1.02 2.28 2.28 2.28 l8.26 0 c0.34 0 0.62 0.28 0.62 0.62 s-0.28 0.6 -0.62 0.6 l-8.26 0 c-1.94 0 -3.5 -1.56 -3.5 -3.5 c0 -1.92 1.56 -3.5 3.5 -3.5 l5.38 0 c0.32 0 0.56 -0.24 0.56 -0.54 c0 -0.34 -0.24 -0.58 -0.56 -0.58 l-5.38 0 c-1.92 0 -3.5 -1.58 -3.5 -3.5 c0 -1.94 1.58 -3.5 3.5 -3.5 z M3.5 14.74 l5.38 0 c0.34 0 0.62 0.26 0.62 0.6 s-0.28 0.62 -0.62 0.62 l-5.38 0 c-0.3 0 -0.56 0.24 -0.56 0.54 c0 0.32 0.26 0.56 0.56 0.56 c0.34 0 0.6 0.28 0.6 0.62 c0 0.32 -0.26 0.6 -0.6 0.6 c-0.98 0 -1.78 -0.8 -1.78 -1.78 s0.8 -1.76 1.78 -1.76 z M14.58 4.880000000000001 l7.28 0 c2.48 0.02 4.48 2.06 4.48 4.54 c0 2.32 -1.78 4.24 -4.04 4.48 l3.62 3.6 c0.54 0.54 0.54 1.54 0 2.08 s-1.48 0.58 -2.04 0.02 c-0.52 -0.54 -2.52 -2.52 -2.52 -2.52 c-0.24 -0.24 -0.24 -0.62 0 -0.86 s0.62 -0.24 0.86 0 l2.48 2.48 c0.1 0.1 0.26 0.12 0.36 0.02 s0.12 -0.24 0 -0.36 l-4.64 -4.62 c-0.12 -0.12 -0.18 -0.26 -0.18 -0.42 c0 -0.34 0.28 -0.62 0.62 -0.62 l0.96 0 c1.82 0 3.32 -1.48 3.32 -3.3 s-1.5 -3.3 -3.32 -3.3 l-6.62 0 l0 3.3 c0 0.34 -0.28 0.6 -0.62 0.6 s-0.6 -0.26 -0.6 -0.6 l0 -3.92 c0 -0.32 0.26 -0.6 0.6 -0.6 z M21.84 6.6 c1.54 0 2.8 1.26 2.8 2.8 s-1.26 2.78 -2.8 2.78 l-3.34 0 c-1.82 0 -3.3 1.48 -3.3 3.3 l0 3.92 c0 0.32 -0.28 0.6 -0.62 0.6 s-0.6 -0.28 -0.6 -0.6 l0 -3.92 c0 -2.5 2.02 -4.52 4.52 -4.52 l3.34 0 c0.88 0 1.58 -0.7 1.58 -1.56 c0 -0.88 -0.7 -1.58 -1.58 -1.58 c-0.34 0 -0.6 -0.26 -0.6 -0.6 s0.26 -0.62 0.6 -0.62 z M35.88 4.880000000000001 c1.46 0 2.76 0.9 3.28 2.26 l5.02 12.02 c0.14 0.32 -0.02 0.66 -0.32 0.8 c-0.32 0.12 -0.68 -0.02 -0.8 -0.34 l-5.06 -12.1 c-0.36 -0.86 -1.2 -1.42 -2.12 -1.42 c-0.94 0 -1.76 0.56 -2.12 1.42 l-4.56 10.9 c-0.06 0.14 -0.02 0.3 0.12 0.36 s0.28 0 0.34 -0.16 l4.56 -10.88 c0.28 -0.66 0.94 -1.08 1.66 -1.08 s1.38 0.42 1.66 1.1 l2.36 5.62 c0.22 0.52 -0.1 0.84 -0.58 0.84 l-4.8 0 c-0.34 0 -0.62 -0.28 -0.62 -0.62 s0.28 -0.6 0.62 -0.6 l3.9 0 l-2 -4.76 c-0.08 -0.22 -0.28 -0.38 -0.54 -0.38 s-0.46 0.16 -0.54 0.38 l-4.56 10.84 c-0.3 0.76 -1.16 1.12 -1.92 0.82 c-0.76 -0.32 -1.12 -1.18 -0.82 -1.92 l4.56 -10.84 c0.52 -1.36 1.82 -2.26 3.28 -2.26 z M54.42 4.880000000000001 c0.34 0 0.6 0.28 0.6 0.6 l0 6.8 c0 4.26 -3.46 7.72 -7.72 7.72 c-0.82 0 -1.46 -0.66 -1.46 -1.46 c0 -0.9 0.68 -1.46 1.46 -1.46 c1.28 0 2.5 -0.5 3.4 -1.4 c0.9 -0.92 1.4 -2.12 1.4 -3.4 c0 -0.32 0.26 -0.6 0.6 -0.6 c0.32 0 0.6 0.28 0.6 0.6 c0 1.6 -0.62 3.1 -1.76 4.24 c-1.12 1.12 -2.64 1.74 -4.24 1.74 c-0.18 0 -0.26 0.16 -0.26 0.28 s0.08 0.26 0.26 0.26 c3.6 0 6.54 -2.92 6.54 -6.52 l0 -6.8 c0 -0.32 0.26 -0.6 0.58 -0.6 z"></path></g></svg>