<svg width="429" height="50.810668733341494" viewBox="0 0 303.9519137418042 36.00000000000001" class="css-1j8o68f"><defs id="SvgjsDefs6465"></defs><g id="SvgjsG6466" featurekey="Df7oLJ-0" transform="matrix(0.7200000286102295,0,0,0.7200000286102295,-7.200000000000001,-7.200000000000001)" fill="#ffffff"><g xmlns="http://www.w3.org/2000/svg"><g><path d="M56.5834961,33.2109375H28.8271484c-0.5522461,0-1-0.4477539-1-1V12.5273438    C27.8271484,11.1337891,28.9609375,10,30.3544922,10h24.7016602c1.3935547,0,2.5273438,1.1337891,2.5273438,2.5273438v19.6835938    C57.5834961,32.7631836,57.1357422,33.2109375,56.5834961,33.2109375z M29.8271484,31.2109375h25.7563477V12.5273438    C55.5834961,12.2363281,55.347168,12,55.0561523,12H30.3544922c-0.2910156,0-0.5273438,0.2363281-0.5273438,0.5273438V31.2109375z    "></path></g><g><path d="M55.2412109,37.0493164h-25.0625c-2.6240234,0-4.7587891-1.7099609-4.7587891-3.8115234v-1.0268555    c0-0.5522461,0.4477539-1,1-1H59c0.5522461,0,1,0.4477539,1,1v1.0268555    C60,35.3393555,57.8652344,37.0493164,55.2412109,37.0493164z M27.4199219,33.2109375v0.0268555    c0,0.9819336,1.2631836,1.8115234,2.7587891,1.8115234h25.0625C56.7368164,35.0493164,58,34.2197266,58,33.237793v-0.0268555    H27.4199219z"></path></g><g><path d="M56.5834961,33.2109375H28.8271484c-0.5522461,0-1-0.4477539-1-1V12.5273438    C27.8271484,11.1337891,28.9609375,10,30.3544922,10h24.7016602c1.3935547,0,2.5273438,1.1337891,2.5273438,2.5273438v19.6835938    C57.5834961,32.7631836,57.1357422,33.2109375,56.5834961,33.2109375z M29.8271484,31.2109375h25.7563477V12.5273438    C55.5834961,12.2363281,55.347168,12,55.0561523,12H30.3544922c-0.2910156,0-0.5273438,0.2363281-0.5273438,0.5273438V31.2109375z    "></path></g><g><path d="M55.2412109,37.0493164h-25.0625c-2.6240234,0-4.7587891-1.7099609-4.7587891-3.8115234v-1.0268555    c0-0.5522461,0.4477539-1,1-1H59c0.5522461,0,1,0.4477539,1,1v1.0268555    C60,35.3393555,57.8652344,37.0493164,55.2412109,37.0493164z M27.4199219,33.2109375v0.0268555    c0,0.9819336,1.2631836,1.8115234,2.7587891,1.8115234h25.0625C56.7368164,35.0493164,58,34.2197266,58,33.237793v-0.0268555    H27.4199219z"></path></g><g><path d="M51.5522461,60H18.4355469C13.7841797,60,10,55.7910156,10,50.6171875c0-5,3.534668-9.0991211,7.9702148-9.3686523    c0.9995117-5.8193359,5.4047852-10.3032227,10.762207-10.8120117c0.2856445-0.0249023,0.559082,0.0673828,0.7675781,0.2558594    c0.2084961,0.1894531,0.3271484,0.4580078,0.3271484,0.7397461v0.7788086c0,0.5522461-0.4477539,1-1,1l-1.4072266,0.0268555    c0,0.9819336,1.2631836,1.8115234,2.7587891,1.8115234h18.7758789c0.215332,0,0.425293,0.0698242,0.5981445,0.1987305    c2.0405273,1.5224609,3.5439453,3.7583008,4.2773438,6.3427734C57.4404297,42.6982422,60,46.3886719,60,50.6171875    C60,55.7910156,56.2104492,60,51.5522461,60z M18.4355469,43.234375C14.887207,43.234375,12,46.5463867,12,50.6171875    S14.887207,58,18.4355469,58h33.1166992C55.1074219,58,58,54.6879883,58,50.6171875    c0-3.5292969-2.1889648-6.5708008-5.2055664-7.2324219c-0.3759766-0.0825195-0.671875-0.3735352-0.7592773-0.7490234    c-0.5288086-2.2612305-1.7387695-4.2324219-3.4223633-5.5864258h-18.434082c-2.5083008,0-4.5698242-1.5625-4.746582-3.5361328    c-2.9936523,1.6459961-5.1767578,4.9433594-5.6000977,8.8554688c-0.0302734,0.2802734-0.1777344,0.534668-0.4052734,0.7006836    c-0.2280273,0.1665039-0.515625,0.2265625-0.7915039,0.1713867C18.6054688,43.234375,18.5073242,43.234375,18.4355469,43.234375z"></path></g><g><g><g><path d="M48.65625,26.3085938c-0.2558594,0-0.5112305-0.0976563-0.706543-0.2924805      c-0.390625-0.3901367-0.3911133-1.0234375-0.0009766-1.4140625l2.8618164-2.8657227L47.9492188,18.875      c-0.390625-0.390625-0.390625-1.0234375,0-1.4140625s1.0234375-0.390625,1.4140625,0l3.5678711,3.5678711      c0.390625,0.3901367,0.390625,1.0229492,0.0004883,1.4135742l-3.5678711,3.5727539      C49.168457,26.2109375,48.9125977,26.3085938,48.65625,26.3085938z"></path></g><g><path d="M36.7543945,26.3085938c-0.2563477,0-0.512207-0.0976563-0.7075195-0.293457l-3.5678711-3.5727539      c-0.3901367-0.390625-0.3901367-1.0234375,0.0004883-1.4135742l3.5678711-3.5678711      c0.390625-0.390625,1.0234375-0.390625,1.4140625,0s0.390625,1.0234375,0,1.4140625l-2.8613281,2.8613281l2.8618164,2.8657227      c0.3901367,0.390625,0.3901367,1.0239258-0.0009766,1.4140625      C37.265625,26.2109375,37.0102539,26.3085938,36.7543945,26.3085938z"></path></g></g><g><path d="M39.2397461,29.3862305c-0.1557617,0-0.3134766-0.0361328-0.4614258-0.1132813     c-0.4897461-0.2553711-0.6796875-0.8588867-0.4243164-1.3491211l7.0678711-13.5620117     c0.2558594-0.4892578,0.859375-0.6801758,1.3491211-0.4243164c0.4897461,0.2553711,0.6796875,0.8588867,0.4243164,1.3491211     l-7.0678711,13.5620117C39.9492188,29.1904297,39.6005859,29.3862305,39.2397461,29.3862305z"></path></g></g></g></g><g id="SvgjsG6467" featurekey="nameLeftFeature-0" transform="matrix(2.3809523582458496,0,0,2.3809523582458496,53.66666561543842,-12.523805967654548)" fill="#ffffff"><path d="M12 9.84 l-1.82 0 c-0.1 -2.22 -1.94 -2.92 -3.56 -2.92 c-1.22 0 -3.28 0.34 -3.28 2.52 c0 1.22 0.86 1.62 1.7 1.82 l4.1 0.94 c1.86 0.44 3.26 1.56 3.26 3.84 c0 3.4 -3.16 4.34 -5.62 4.34 c-2.66 0 -3.7 -0.8 -4.34 -1.38 c-1.22 -1.1 -1.46 -2.3 -1.46 -3.64 l1.82 0 c0 2.6 2.12 3.36 3.96 3.36 c1.4 0 3.76 -0.36 3.76 -2.42 c0 -1.5 -0.7 -1.98 -3.06 -2.54 l-2.94 -0.68 c-0.94 -0.22 -3.06 -0.88 -3.06 -3.38 c0 -2.24 1.46 -4.44 4.94 -4.44 c5.02 0 5.52 3 5.6 4.58 z M17.04 13.84 l0 6.16 l-1.94 0 l0 -14.36 l6.64 0 c2.36 0 4.72 0.82 4.72 3.86 c0 2.12 -1.08 2.9 -2 3.44 c0.82 0.34 1.64 0.7 1.72 2.7 l0.12 2.6 c0.02 0.8 0.12 1.1 0.72 1.44 l0 0.32 l-2.38 0 c-0.28 -0.88 -0.34 -3.06 -0.34 -3.6 c0 -1.18 -0.24 -2.56 -2.56 -2.56 l-4.7 0 z M17.04 7.300000000000001 l0 4.88 l4.5 0 c1.42 0 2.92 -0.36 2.92 -2.48 c0 -2.22 -1.62 -2.4 -2.58 -2.4 l-4.84 0 z M31.6 17.88 l0 2.12 l-2.08 0 l0 -2.12 l2.08 0 z M48.56 20 l-1.88 0 l0 -8.48 c0 -0.42 0.04 -2.24 0.04 -3.58 l-0.04 0 l-4.04 12.06 l-1.92 0 l-4.04 -12.04 l-0.04 0 c0 1.32 0.04 3.14 0.04 3.56 l0 8.48 l-1.88 0 l0 -14.36 l2.78 0 l4.1 12.14 l0.04 0 l4.08 -12.14 l2.76 0 l0 14.36 z"></path></g><g id="SvgjsG6468" featurekey="nameRightFeature-0" transform="matrix(2.3800785541534424,0,0,2.3800785541534424,173,-11.614776778987016)" fill="#ffffff"><path d="M3.5 4.880000000000001 l7.42 0 c0.8 0 1.46 0.66 1.46 1.46 s-0.62 1.48 -1.42 1.48 l-7.46 0 c-0.3 0 -0.56 0.24 -0.56 0.56 c0 0.3 0.26 0.56 0.56 0.56 c0.34 0 0.62 0.26 0.62 0.6 s-0.28 0.62 -0.62 0.62 c-0.98 0 -1.76 -0.8 -1.76 -1.78 s0.78 -1.78 1.76 -1.78 l7.42 0 c0.14 0 0.24 -0.12 0.24 -0.26 s-0.1 -0.24 -0.24 -0.24 l-7.42 0 c-1.26 0 -2.28 1.02 -2.28 2.28 s1.02 2.28 2.28 2.28 l5.38 0 c0.98 0 1.78 0.8 1.78 1.8 c0 0.98 -0.8 1.76 -1.78 1.76 l-5.38 0 c-1.26 0 -2.28 1.02 -2.28 2.28 s1.02 2.28 2.28 2.28 l8.26 0 c0.34 0 0.62 0.28 0.62 0.62 s-0.28 0.6 -0.62 0.6 l-8.26 0 c-1.94 0 -3.5 -1.56 -3.5 -3.5 c0 -1.92 1.56 -3.5 3.5 -3.5 l5.38 0 c0.32 0 0.56 -0.24 0.56 -0.54 c0 -0.34 -0.24 -0.58 -0.56 -0.58 l-5.38 0 c-1.92 0 -3.5 -1.58 -3.5 -3.5 c0 -1.94 1.58 -3.5 3.5 -3.5 z M3.5 14.74 l5.38 0 c0.34 0 0.62 0.26 0.62 0.6 s-0.28 0.62 -0.62 0.62 l-5.38 0 c-0.3 0 -0.56 0.24 -0.56 0.54 c0 0.32 0.26 0.56 0.56 0.56 c0.34 0 0.6 0.28 0.6 0.62 c0 0.32 -0.26 0.6 -0.6 0.6 c-0.98 0 -1.78 -0.8 -1.78 -1.78 s0.8 -1.76 1.78 -1.76 z M14.58 4.880000000000001 l7.28 0 c2.48 0.02 4.48 2.06 4.48 4.54 c0 2.32 -1.78 4.24 -4.04 4.48 l3.62 3.6 c0.54 0.54 0.54 1.54 0 2.08 s-1.48 0.58 -2.04 0.02 c-0.52 -0.54 -2.52 -2.52 -2.52 -2.52 c-0.24 -0.24 -0.24 -0.62 0 -0.86 s0.62 -0.24 0.86 0 l2.48 2.48 c0.1 0.1 0.26 0.12 0.36 0.02 s0.12 -0.24 0 -0.36 l-4.64 -4.62 c-0.12 -0.12 -0.18 -0.26 -0.18 -0.42 c0 -0.34 0.28 -0.62 0.62 -0.62 l0.96 0 c1.82 0 3.32 -1.48 3.32 -3.3 s-1.5 -3.3 -3.32 -3.3 l-6.62 0 l0 3.3 c0 0.34 -0.28 0.6 -0.62 0.6 s-0.6 -0.26 -0.6 -0.6 l0 -3.92 c0 -0.32 0.26 -0.6 0.6 -0.6 z M21.84 6.6 c1.54 0 2.8 1.26 2.8 2.8 s-1.26 2.78 -2.8 2.78 l-3.34 0 c-1.82 0 -3.3 1.48 -3.3 3.3 l0 3.92 c0 0.32 -0.28 0.6 -0.62 0.6 s-0.6 -0.28 -0.6 -0.6 l0 -3.92 c0 -2.5 2.02 -4.52 4.52 -4.52 l3.34 0 c0.88 0 1.58 -0.7 1.58 -1.56 c0 -0.88 -0.7 -1.58 -1.58 -1.58 c-0.34 0 -0.6 -0.26 -0.6 -0.6 s0.26 -0.62 0.6 -0.62 z M35.88 4.880000000000001 c1.46 0 2.76 0.9 3.28 2.26 l5.02 12.02 c0.14 0.32 -0.02 0.66 -0.32 0.8 c-0.32 0.12 -0.68 -0.02 -0.8 -0.34 l-5.06 -12.1 c-0.36 -0.86 -1.2 -1.42 -2.12 -1.42 c-0.94 0 -1.76 0.56 -2.12 1.42 l-4.56 10.9 c-0.06 0.14 -0.02 0.3 0.12 0.36 s0.28 0 0.34 -0.16 l4.56 -10.88 c0.28 -0.66 0.94 -1.08 1.66 -1.08 s1.38 0.42 1.66 1.1 l2.36 5.62 c0.22 0.52 -0.1 0.84 -0.58 0.84 l-4.8 0 c-0.34 0 -0.62 -0.28 -0.62 -0.62 s0.28 -0.6 0.62 -0.6 l3.9 0 l-2 -4.76 c-0.08 -0.22 -0.28 -0.38 -0.54 -0.38 s-0.46 0.16 -0.54 0.38 l-4.56 10.84 c-0.3 0.76 -1.16 1.12 -1.92 0.82 c-0.76 -0.32 -1.12 -1.18 -0.82 -1.92 l4.56 -10.84 c0.52 -1.36 1.82 -2.26 3.28 -2.26 z M54.42 4.880000000000001 c0.34 0 0.6 0.28 0.6 0.6 l0 6.8 c0 4.26 -3.46 7.72 -7.72 7.72 c-0.82 0 -1.46 -0.66 -1.46 -1.46 c0 -0.9 0.68 -1.46 1.46 -1.46 c1.28 0 2.5 -0.5 3.4 -1.4 c0.9 -0.92 1.4 -2.12 1.4 -3.4 c0 -0.32 0.26 -0.6 0.6 -0.6 c0.32 0 0.6 0.28 0.6 0.6 c0 1.6 -0.62 3.1 -1.76 4.24 c-1.12 1.12 -2.64 1.74 -4.24 1.74 c-0.18 0 -0.26 0.16 -0.26 0.28 s0.08 0.26 0.26 0.26 c3.6 0 6.54 -2.92 6.54 -6.52 l0 -6.8 c0 -0.32 0.26 -0.6 0.58 -0.6 z"></path></g></svg>